{"title":"Zumbo's Just Desserts - S01E08 - Classic Aussie Dessert","uid":15860725,"size":445097646,"categoryP":"video","categoryS":"tv_shows","magnet":"?xt=urn:btih:bc85a7c89022f23f9d34222cbb9b7068f5c5066c&amp;dn=Zumbo%27s+Just+Desserts+-+S01E08+-+Classic+Aussie+Dessert&amp;tr=udp%3A%2F%2Ftracker.leechers-paradise.org%3A6969&amp;tr=udp%3A%2F%2Fzer0day.ch%3A1337&amp;tr=udp%3A%2F%2Fopen.demonii.com%3A1337&amp;tr=udp%3A%2F%2Ftracker.coppersurfer.tk%3A6969&amp;tr=udp%3A%2F%2Fexodus.desync.com%3A6969","seeders":8,"leechers":4,"uploader":"Bullrout","files":1,"time":1474291651,"description":"Zumbo's Just Desserts - S01E08 - Classic Aussie Dessert\r\n\r\nThe remaining dessert makers will be entering very dangerous territory tonight, as they'll be taking on one of the riskiest things you can ever do as a dessert maker.\r\n\r\nComplete name                            : Zumbo's Just Desserts - S01E08 - Classic Aussie Dessert.mp4\r\nFormat                                   : MPEG-4\r\nFormat profile                           : Base Media / Version 2\r\nCodec ID                                 : mp42 (mp42/isom/avc1)\r\nFile size                                : 424 MiB\r\nDuration                                 : 53 min 17 s\r\nOverall bit rate mode                    : Variable\r\nOverall bit rate                         : 1 113 kb/s\r\n\r\nVideo\r\nID                                       : 2\r\nFormat                                   : AVC\r\nFormat/Info                              : Advanced Video Codec\r\nFormat profile                           :   \r\nFormat settings, CABAC                   : Yes\r\nFormat settings, ReFrames                : 3 frames\r\nCodec ID                                 : avc1\r\nCodec ID/Info                            : Advanced Video Coding\r\nDuration                                 : 53 min 17 s\r\nBit rate mode                            : Variable\r\nBit rate                                 : 982 kb/s\r\nMaximum bit rate                         : 1 000 kb/s\r\nWidth                                    : 720 pixels\r\nHeight                                   : 404 pixels\r\nDisplay aspect ratio                     : 16:9\r\nOriginal display aspect ratio            : 16:9\r\nFrame rate mode                          : Constant\r\nFrame rate                               : 25.000 FPS\r\nStandard                                 : PAL\r\nColor space                              : YUV\r\nChroma subsampling                       : 4:2:0\r\nBit depth                                : 8 bits\r\nScan type                                : Progressive\r\nBits/(Pixel*Frame)                       : 0.135\r\nStream size                              : 374 MiB (88%)\r\nWriting library                          : x264 core 112\r\nColor range                              : Limited\r\nColor primaries                          : BT.601 PAL\r\nTransfer characteristics                 : BT.470 System B, BT.470 System G\r\nMatrix coefficients                      : BT.601\r\n\r\nAudio\r\nID                                       : 1\r\nFormat                                   : AAC\r\nFormat/Info                              : Advanced Audio Codec\r\nFormat profile                           : LC\r\nCodec ID                                 : 40\r\nDuration                                 : 53 min 17 s\r\nBit rate mode                            : Variable\r\nBit rate                                 : 128 kb/s\r\nMaximum bit rate                         : 576 kb/s\r\nChannel(s)                               : 2 channels\r\nChannel positions                        : Front: L R\r\nSampling rate                            : 48.0 kHz\r\nFrame rate                               : 46.875 FPS (1024 spf)\r\nCompression mode                         : Lossy\r\nStream size                              : 48.8 MiB (11%)","torrent":{"xt":"urn:btih:bc85a7c89022f23f9d34222cbb9b7068f5c5066c","amp;dn":"Zumbo%27s+Just+Desserts+-+S01E08+-+Classic+Aussie+Dessert","amp;tr":["udp%3A%2F%2Ftracker.leechers-paradise.org%3A6969","udp%3A%2F%2Fzer0day.ch%3A1337","udp%3A%2F%2Fopen.demonii.com%3A1337","udp%3A%2F%2Ftracker.coppersurfer.tk%3A6969","udp%3A%2F%2Fexodus.desync.com%3A6969"],"infoHash":"bc85a7c89022f23f9d34222cbb9b7068f5c5066c","infoHashBuffer":{"type":"Buffer","data":[188,133,167,200,144,34,242,63,157,52,34,44,187,155,112,104,245,197,6,108]},"announce":[],"urlList":[]}}